<svg fill="none" height="21" viewBox="0 0 20 21" width="20" xmlns="http://www.w3.org/2000/svg"><g fill="#07081d"><path d="m14.5345 12.0089c-.0345-.0345-.0862-.0345-.1379-.0172l-.1207.0517c-.5862.2931-1.2414.431-1.8966.431-.0345 0-.0517.0173-.0517.0345-.069.3104-.3276.5345-.6552.5345h-1.3448v-1.1207h.0172c.0862.0173.1552.0173.2414.0345.569.0862.8448.3448.9655.4655l.0173.0173c.0172.0172.0517.0172.0689 0 .0173-.0173.0345-.0345.069-.0518.2069-.1379.6897-.431.6897-1.9827 0-1.58623-1.2069-2.6552-1.3449-2.72416l-.7069-.05173h-.0172v-.44827c.1379-.08621.2414-.24138.2414-.43104 0-.27586-.2069-.5-.4828-.5-.27586 0-.48275.22414-.48275.5 0 .17242.08621.32759.24138.4138v.37931l-1.01724-.10345c-.05173 0-.08621.05172-.05173.08621.17242.27586.63793 1.13793.67242 2.43103.03448 1.2069-.15518 1.7759-.24138 1.9828-.01724.0172-.01724.0344 0 .0517.01724.0172.03448.0172.05172.0172.12069-.0172.32759-.0517.58621-.0689v1.1206h-1.12069c-.36207 0-.67242-.3103-.67242-.6724v-.2758c0-.0345-.01724-.0518-.05172-.0518h-2.08621c-.01724 0-.05172.0173-.05172.0518v.1551c0 .7759.22414 1.4828.60345 2.1035.06896.1034.18965.1552.2931.1034l.22414-.1034c.17241-.0862.37931-.0862.56896 0l.24138.1034c.17242.0862.37931.0862.56897 0l.24138-.1034c.18965-.0862.37931-.0862.56896 0l.24138.1034c.18966.0862.37931.0862.56897 0l.24134-.1034c.1897-.0862.3793-.0862.569 0l.2414.1034c.1896.0862.3793.0862.5689 0l.2414-.1034c.1897-.0862.3793-.0862.569 0l.2414.1034c.1551.069.3276-.0172.4138-.1724.1379-.2241.2586-.4827.3448-.7241.1896-.569.5345-1.1035 1.069-1.3621.0517-.0172.0689-.0689.0689-.1207.0345-.0172.0173-.0689-.0172-.0862zm-7.68967-.3793h1.96551c.03449 0 .05173-.0172.05173-.0517v-2.13794c0-.01724-.01724-.03448-.03448-.05173l-.96552-.44827c-.01724-.01724-.05172 0-.06897.03448l-1 2.56896c-.01724.0517.01725.0862.05173.0862zm3.15517-10.91378c-5.51724 0-10 4.48276-10 9.99998 0 5.5173 4.48276 10 10 10 5.5172 0 10-4.4827 10-10 0-5.51722-4.4828-9.99998-10-9.99998zm-.03448 17.27588c-3.98276 0-7.2069-3.2242-7.2069-7.2242 0-3.98271 3.22414-7.22409 7.2069-7.22409 3.98278 0 7.20688 3.24138 7.20688 7.22409-.0172 4-3.2414 7.2242-7.20688 7.2242zm4.43108-6-.1207.0517c-.5862.2931-1.2414.431-1.8966.431-.0345 0-.0517.0173-.0517.0345-.069.3104-.3276.5345-.6552.5345h-1.3448v-1.1207h.0172c.0862.0173.1552.0173.2414.0345.569.0862.8448.3448.9655.4655l.0173.0173c.0172.0172.0517.0172.0689 0 .0173-.0173.0345-.0345.069-.0518.2069-.1379.6897-.431.6897-1.9827 0-1.58623-1.2069-2.6552-1.3449-2.72416l-.7069-.05173h-.0172v-.44827c.1379-.08621.2414-.24138.2414-.43104 0-.27586-.2069-.5-.4828-.5-.27586 0-.48275.22414-.48275.5 0 .17242.08621.32759.24138.4138v.37931l-1.01724-.10345c-.05173 0-.08621.05172-.05173.08621.17242.27586.63793 1.13793.67242 2.43103.03448 1.2069-.15518 1.7759-.24138 1.9828-.01724.0172-.01724.0344 0 .0517.01724.0172.03448.0172.05172.0172.12069-.0172.32759-.0517.58621-.0689v1.1206h-1.12069c-.36207 0-.67242-.3103-.67242-.6724v-.2758c0-.0345-.01724-.0518-.05172-.0518h-2.08621c-.01724 0-.05172.0173-.05172.0518v.1551c0 .7759.22414 1.4828.60345 2.1035.06896.1034.18965.1552.2931.1034l.22414-.1034c.17241-.0862.37931-.0862.56896 0l.24138.1034c.17242.0862.37931.0862.56897 0l.24138-.1034c.18965-.0862.37931-.0862.56896 0l.24138.1034c.18966.0862.37931.0862.56897 0l.24134-.1034c.1897-.0862.3793-.0862.569 0l.2414.1034c.1896.0862.3793.0862.5689 0l.2414-.1034c.1897-.0862.3793-.0862.569 0l.2414.1034c.1551.069.3276-.0172.4138-.1724.1379-.2241.2586-.4827.3448-.7241.1896-.569.5345-1.1035 1.069-1.3621.0517-.0172.0689-.0689.0689-.1207 0-.0345-.0172-.0862-.0517-.1034 0 0-.0517-.0173-.1034 0zm-7.55177-.3621h1.96551c.03449 0 .05173-.0172.05173-.0517v-2.13794c0-.01724-.01724-.03448-.03448-.05173l-.96552-.44827c-.01724-.01724-.05172 0-.06897.03448l-1 2.56896c-.01724.0517.01725.0862.05173.0862z"/><path d="m8.82684 9.40615-.96551-.44828c-.01724-.01724-.05173 0-.06897.03449l-1 2.56894c-.01724.0345.01724.069.05173.069h1.96551c.03449 0 .05173-.0173.05173-.0517v-2.13797c0-.01724-.01724-.03448-.03449-.03448zm5.70686 2.60345c-.0344-.0345-.0862-.0345-.1379-.0172l-.1207.0517c-.5862.2931-1.2414.431-1.8965.431-.0345 0-.0518.0173-.0518.0345-.0689.3103-.3275.5345-.6551.5345h-1.3449v-1.1207h.0173c.0862.0172.1552.0172.2414.0345.5689.0862.8448.3448.9655.4655l.0172.0172c.0173.0173.0517.0173.069 0 .0172-.0172.0345-.0345.069-.0517.2069-.1379.6896-.431.6896-1.9828 0-1.58616-1.2069-2.65512-1.3448-2.72409l-.7069-.05172h-.0173v-.44828c.138-.08621.2414-.24138.2414-.43103 0-.27587-.2069-.5-.4827-.5-.2759 0-.48279.22413-.48279.5 0 .17241.0862.32758.24138.41379v.37931l-1.01725-.10345c-.05172 0-.0862.05173-.05172.08621.17241.27586.63793 1.13793.67241 2.43103.03449 1.20693-.15517 1.77583-.24137 1.98273-.01725.0173-.01725.0345 0 .0518.01724.0172.03448.0172.05172.0172.12069-.0172.32759-.0517.58621-.069v1.1207h-1.12069c-.36207 0-.67242-.3103-.67242-.6724v-.2759c0-.0344-.01724-.0517-.05172-.0517h-2.08621c-.01724 0-.05172.0173-.05172.0517v.1552c0 .7759.22414 1.4828.60345 2.1035.06896.1034.18965.1551.2931.1034l.22414-.1034c.17241-.0862.37931-.0862.56896 0l.24138.1034c.17242.0862.37931.0862.56897 0l.24138-.1034c.18965-.0862.37931-.0862.56896 0l.24138.1034c.18966.0862.37931.0862.56897 0l.24138-.1034c.1897-.0862.3793-.0862.569 0l.2413.1034c.1897.0862.3794.0862.569 0l.2414-.1034c.1896-.0862.3793-.0862.569 0l.2413.1034c.1552.069.3276-.0172.4138-.1724.138-.2241.2586-.4828.3449-.7241.1896-.569.5344-1.1035 1.0689-1.3621.0517-.0172.069-.069.069-.1207.0345-.0172.0172-.069-.0173-.0862z"/></g></svg>